<svg width="103" height="64" viewBox="0 0 103 64" fill="none" xmlns="http://www.w3.org/2000/svg">
<path d="M42 5C42 3.34315 43.3432 2 45 2H53C54.6569 2 56 3.34315 56 5V11C56 12.6569 54.6569 14 53 14H45C43.3432 14 42 12.6569 42 11V5Z" fill="#B7A193"/>
<path d="M42 5C42 3.34315 43.3432 2 45 2H53C54.6569 2 56 3.34315 56 5V11C56 12.6569 54.6569 14 53 14H45C43.3432 14 42 12.6569 42 11V5Z" fill="#B7A193"/>
<path d="M25 5C25 3.34315 26.3431 2 28 2H35C36.6569 2 38 3.34315 38 5V11C38 12.6569 36.6569 14 35 14H28C26.3431 14 25 12.6569 25 11V5Z" fill="#B7A193"/>
<path d="M25 5C25 3.34315 26.3431 2 28 2H35C36.6569 2 38 3.34315 38 5V11C38 12.6569 36.6569 14 35 14H28C26.3431 14 25 12.6569 25 11V5Z" fill="#FFF4E6"/>
<path d="M42 21C42 19.3431 43.3432 18 45 18H58C59.6569 18 61 19.3431 61 21V27C61 28.6569 59.6569 30 58 30H45C43.3432 30 42 28.6569 42 27V21Z" fill="#B7A193"/>
<path d="M42 21C42 19.3431 43.3432 18 45 18H58C59.6569 18 61 19.3431 61 21V27C61 28.6569 59.6569 30 58 30H45C43.3432 30 42 28.6569 42 27V21Z" fill="#9A8470"/>
<path d="M25 21C25 19.3431 26.3431 18 28 18H35C36.6569 18 38 19.3431 38 21V27C38 28.6569 36.6569 30 35 30H28C26.3431 30 25 28.6569 25 27V21Z" fill="#B7A193"/>
<path d="M25 21C25 19.3431 26.3431 18 28 18H35C36.6569 18 38 19.3431 38 21V27C38 28.6569 36.6569 30 35 30H28C26.3431 30 25 28.6569 25 27V21Z" fill="#FFF4E6"/>
<path d="M25 53C25 51.3431 26.3431 50 28 50H75C76.6569 50 78 51.3431 78 53V59C78 60.6569 76.6569 62 75 62H28C26.3431 62 25 60.6569 25 59V53Z" fill="#B7A193"/>
<path d="M25 53C25 51.3431 26.3431 50 28 50H75C76.6569 50 78 51.3431 78 53V59C78 60.6569 76.6569 62 75 62H28C26.3431 62 25 60.6569 25 59V53Z" fill="#FFF4E6"/>
<path d="M42 37C42 35.3431 43.3432 34 45 34H61C62.6569 34 64 35.3431 64 37V43C64 44.6569 62.6569 46 61 46H45C43.3432 46 42 44.6569 42 43V37Z" fill="#B7A193"/>
<path d="M42 37C42 35.3431 43.3432 34 45 34H61C62.6569 34 64 35.3431 64 37V43C64 44.6569 62.6569 46 61 46H45C43.3432 46 42 44.6569 42 43V37Z" fill="#B7A193"/>
<path d="M25 37C25 35.3431 26.3431 34 28 34H35C36.6569 34 38 35.3431 38 37V43C38 44.6569 36.6569 46 35 46H28C26.3431 46 25 44.6569 25 43V37Z" fill="#B7A193"/>
<path d="M25 37C25 35.3431 26.3431 34 28 34H35C36.6569 34 38 35.3431 38 37V43C38 44.6569 36.6569 46 35 46H28C26.3431 46 25 44.6569 25 43V37Z" fill="#FFF4E6"/>
<path d="M68 37C68 35.3431 69.3431 34 71 34H75C76.6569 34 78 35.3431 78 37V43C78 44.6569 76.6569 46 75 46H71C69.3431 46 68 44.6569 68 43V37Z" fill="#B7A193"/>
<path d="M68 37C68 35.3431 69.3431 34 71 34H75C76.6569 34 78 35.3431 78 37V43C78 44.6569 76.6569 46 75 46H71C69.3431 46 68 44.6569 68 43V37Z" fill="#806F64"/>
<path d="M60 5C60 3.34315 61.3432 2 63 2H75C76.6569 2 78 3.34315 78 5V11C78 12.6569 76.6569 14 75 14H63C61.3432 14 60 12.6569 60 11V5Z" fill="#B7A193"/>
<path d="M60 5C60 3.34315 61.3432 2 63 2H75C76.6569 2 78 3.34315 78 5V11C78 12.6569 76.6569 14 75 14H63C61.3432 14 60 12.6569 60 11V5Z" fill="#6A5D54"/>
<path d="M65 21C65 19.3431 66.3431 18 68 18H75C76.6569 18 78 19.3431 78 21V27C78 28.6569 76.6569 30 75 30H68C66.3431 30 65 28.6569 65 27V21Z" fill="#B7A193"/>
<path d="M65 21C65 19.3431 66.3431 18 68 18H75C76.6569 18 78 19.3431 78 21V27C78 28.6569 76.6569 30 75 30H68C66.3431 30 65 28.6569 65 27V21Z" fill="#B7A193"/>
<path d="M2 5C2 3.34315 3.34315 2 5 2H17C18.6569 2 20 3.34315 20 5V8C20 9.65685 18.6569 11 17 11H13C11.3431 11 10 12.3431 10 14V50C10 51.6569 11.3431 53 13 53H17C18.6569 53 20 54.3431 20 56V59C20 60.6569 18.6569 62 17 62H5C3.34315 62 2 60.6569 2 59V5Z" fill="#B7A193"/>
<path d="M2 5C2 3.34315 3.34315 2 5 2H17C18.6569 2 20 3.34315 20 5V8C20 9.65685 18.6569 11 17 11H13C11.3431 11 10 12.3431 10 14V50C10 51.6569 11.3431 53 13 53H17C18.6569 53 20 54.3431 20 56V59C20 60.6569 18.6569 62 17 62H5C3.34315 62 2 60.6569 2 59V5Z" fill="#EAB232"/>
<path d="M101 5C101 3.34315 99.6569 2 98 2H86C84.3431 2 83 3.34315 83 5V8C83 9.65685 84.3431 11 86 11H90C91.6569 11 93 12.3431 93 14V50C93 51.6569 91.6569 53 90 53H86C84.3431 53 83 54.3431 83 56V59C83 60.6569 84.3431 62 86 62H98C99.6569 62 101 60.6569 101 59V5Z" fill="#B7A193"/>
<path d="M101 5C101 3.34315 99.6569 2 98 2H86C84.3431 2 83 3.34315 83 5V8C83 9.65685 84.3431 11 86 11H90C91.6569 11 93 12.3431 93 14V50C93 51.6569 91.6569 53 90 53H86C84.3431 53 83 54.3431 83 56V59C83 60.6569 84.3431 62 86 62H98C99.6569 62 101 60.6569 101 59V5Z" fill="#EAB232"/>
<path d="M45 14H53C54.6569 14 56 12.6569 56 11V5C56 3.34315 54.6569 2 53 2H45C43.3432 2 42 3.34315 42 5V11C42 12.6569 43.3432 14 45 14ZM28 14H35C36.6569 14 38 12.6569 38 11V5C38 3.34315 36.6569 2 35 2H28C26.3431 2 25 3.34315 25 5V11C25 12.6569 26.3431 14 28 14ZM45 30H58C59.6569 30 61 28.6569 61 27V21C61 19.3431 59.6569 18 58 18H45C43.3432 18 42 19.3431 42 21V27C42 28.6569 43.3432 30 45 30ZM28 30H35C36.6569 30 38 28.6569 38 27V21C38 19.3431 36.6569 18 35 18H28C26.3431 18 25 19.3431 25 21V27C25 28.6569 26.3431 30 28 30ZM28 62H75C76.6569 62 78 60.6569 78 59V53C78 51.3431 76.6569 50 75 50H28C26.3431 50 25 51.3431 25 53V59C25 60.6569 26.3431 62 28 62ZM45 46H61C62.6569 46 64 44.6569 64 43V37C64 35.3431 62.6569 34 61 34H45C43.3432 34 42 35.3431 42 37V43C42 44.6569 43.3432 46 45 46ZM28 46H35C36.6569 46 38 44.6569 38 43V37C38 35.3431 36.6569 34 35 34H28C26.3431 34 25 35.3431 25 37V43C25 44.6569 26.3431 46 28 46ZM71 46H75C76.6569 46 78 44.6569 78 43V37C78 35.3431 76.6569 34 75 34H71C69.3431 34 68 35.3431 68 37V43C68 44.6569 69.3431 46 71 46ZM63 14H75C76.6569 14 78 12.6569 78 11V5C78 3.34315 76.6569 2 75 2H63C61.3432 2 60 3.34315 60 5V11C60 12.6569 61.3432 14 63 14ZM68 30H75C76.6569 30 78 28.6569 78 27V21C78 19.3431 76.6569 18 75 18H68C66.3431 18 65 19.3431 65 21V27C65 28.6569 66.3431 30 68 30ZM5 62C3.34315 62 2 60.6569 2 59V5C2 3.34315 3.34315 2 5 2H17C18.6569 2 20 3.34315 20 5V8C20 9.65685 18.6569 11 17 11H13C11.3431 11 10 12.3431 10 14V50C10 51.6569 11.3431 53 13 53H17C18.6569 53 20 54.3431 20 56V59C20 60.6569 18.6569 62 17 62H5ZM98 62C99.6569 62 101 60.6569 101 59V5C101 3.34315 99.6569 2 98 2H86C84.3431 2 83 3.34315 83 5V8C83 9.65685 84.3431 11 86 11H90C91.6569 11 93 12.3431 93 14V50C93 51.6569 91.6569 53 90 53H86C84.3431 53 83 54.3431 83 56V59C83 60.6569 84.3431 62 86 62H98Z" stroke="#524D4B" stroke-width="3"/>
</svg>
