<svg width="125" height="104" viewBox="0 0 125 104" fill="none" xmlns="http://www.w3.org/2000/svg">
<path d="M31.25 78H44.2343H57.2186L62.5 52H49.5157H36.5314L31.25 78Z" fill="#165F6B"/>
<path d="M49.5157 52H62.5L67.7814 26H54.7971H41.8127L36.5314 52H49.5157Z" fill="#165F6B"/>
<path d="M41.8127 26H54.7971H67.7814L73.0627 0H60.0784H47.0941L41.8127 26Z" fill="#165F6B"/>
<path d="M57.2186 78H70.2029H83.1873H96.1716L101.453 52H88.4686H75.4843H62.5L57.2186 78Z" fill="#AFF3FE"/>
<path d="M75.4843 52H88.4686L93.75 26H80.7657H67.7814L62.5 52H75.4843Z" fill="#84D9E7"/>
<path d="M114.437 52L119.719 26H106.734H93.75L88.4686 52H101.453H114.437Z" fill="#438B97"/>
<path d="M119.719 26L125 0H112.016H99.0314L93.75 26H106.734H119.719Z" fill="#AFF3FE"/>
<path d="M67.7814 26H80.7657H93.75L99.0314 0H86.0471H73.0627L67.7814 26Z" fill="#30818E"/>
<path d="M109.156 78L114.437 52H101.453L96.1716 78H109.156Z" fill="#30818E"/>
<path d="M5.28137 78L0 104H12.9843H25.9686L31.25 78H18.2657H5.28137Z" fill="#84D9E7"/>
<path d="M10.5627 52L5.28137 78H18.2657H31.25L36.5314 52H23.5471H10.5627Z" fill="#438B97"/>
<path d="M15.8441 26L10.5627 52H23.5471H36.5314L41.8127 26H28.8284H15.8441Z" fill="#AFF3FE"/>
<path d="M28.8284 26H41.8127L47.0941 0H34.1098L31.4118 12.6829L28.8284 26Z" fill="#438B97"/>
<path d="M21.1255 0L15.8441 26H28.8284L31.4118 12.6829L34.1098 0H21.1255Z" fill="#84D9E7"/>
<path d="M103.875 104L109.156 78H96.1716H83.1873H70.2029H57.2186H44.2343H31.25L25.9686 104H38.9529H51.9373H64.9216H77.9059H90.8902H103.875Z" fill="#165F6B"/>
</svg>
