<svg width="165" height="165" viewBox="0 0 165 165" fill="none" xmlns="http://www.w3.org/2000/svg">
<g clip-path="url(#clip0_354_226)">
<rect width="165" height="165" fill="white"/>
<rect x="6" y="6" width="153" height="153" fill="#383838" stroke="#282828" stroke-width="12"/>
<path d="M18.7189 28.15C17.8589 28.15 17.1789 27.93 16.6789 27.49C16.1889 27.04 15.9439 26.43 15.9439 25.66C15.9439 24.88 16.2039 24.27 16.7239 23.83C17.2539 23.38 17.9789 23.155 18.8989 23.155H21.1939V22.39C21.1939 21.94 21.0539 21.59 20.7739 21.34C20.4939 21.09 20.0989 20.965 19.5889 20.965C19.1389 20.965 18.7639 21.065 18.4639 21.265C18.1639 21.455 17.9889 21.71 17.9389 22.03H16.3489C16.4389 21.29 16.7789 20.7 17.3689 20.26C17.9689 19.82 18.7239 19.6 19.6339 19.6C20.6139 19.6 21.3889 19.85 21.9589 20.35C22.5289 20.84 22.8139 21.51 22.8139 22.36V28H21.2389V26.485H20.9689L21.2389 26.185C21.2389 26.785 21.0089 27.265 20.5489 27.625C20.0889 27.975 19.4789 28.15 18.7189 28.15ZM19.1989 26.905C19.7789 26.905 20.2539 26.76 20.6239 26.47C21.0039 26.17 21.1939 25.79 21.1939 25.33V24.25H18.9289C18.5089 24.25 18.1739 24.365 17.9239 24.595C17.6839 24.825 17.5639 25.14 17.5639 25.54C17.5639 25.96 17.7089 26.295 17.9989 26.545C18.2889 26.785 18.6889 26.905 19.1989 26.905ZM119.064 68.15C118.384 68.15 117.844 67.965 117.444 67.595C117.044 67.215 116.844 66.7 116.844 66.05L117.189 66.425H116.844V68H115.239V57.05H116.859V59.405L116.814 61.325H117.189L116.844 61.7C116.844 61.05 117.044 60.54 117.444 60.17C117.854 59.79 118.394 59.6 119.064 59.6C119.894 59.6 120.559 59.88 121.059 60.44C121.559 61 121.809 61.76 121.809 62.72V65.045C121.809 65.995 121.559 66.75 121.059 67.31C120.559 67.87 119.894 68.15 119.064 68.15ZM118.509 66.74C119.039 66.74 119.454 66.59 119.754 66.29C120.054 65.98 120.204 65.535 120.204 64.955V62.795C120.204 62.215 120.054 61.775 119.754 61.475C119.454 61.165 119.039 61.01 118.509 61.01C117.999 61.01 117.594 61.17 117.294 61.49C117.004 61.8 116.859 62.235 116.859 62.795V64.955C116.859 65.515 117.004 65.955 117.294 66.275C117.594 66.585 117.999 66.74 118.509 66.74ZM37.5922 128.15C36.9122 128.15 36.3122 128.025 35.7922 127.775C35.2822 127.515 34.8872 127.145 34.6072 126.665C34.3372 126.175 34.2022 125.605 34.2022 124.955V122.795C34.2022 122.135 34.3372 121.565 34.6072 121.085C34.8872 120.605 35.2822 120.24 35.7922 119.99C36.3122 119.73 36.9122 119.6 37.5922 119.6C38.5822 119.6 39.3772 119.86 39.9772 120.38C40.5772 120.9 40.8922 121.61 40.9222 122.51H39.3022C39.2722 122.04 39.1072 121.675 38.8072 121.415C38.5072 121.155 38.1022 121.025 37.5922 121.025C37.0422 121.025 36.6072 121.18 36.2872 121.49C35.9672 121.79 35.8072 122.22 35.8072 122.78V124.955C35.8072 125.515 35.9672 125.95 36.2872 126.26C36.6072 126.57 37.0422 126.725 37.5922 126.725C38.1022 126.725 38.5072 126.595 38.8072 126.335C39.1072 126.075 39.2722 125.71 39.3022 125.24H40.9222C40.8922 126.14 40.5772 126.85 39.9772 127.37C39.3772 127.89 38.5822 128.15 37.5922 128.15ZM144.877 128.15C144.047 128.15 143.382 127.87 142.882 127.31C142.382 126.75 142.132 125.995 142.132 125.045V122.72C142.132 121.76 142.382 121 142.882 120.44C143.382 119.88 144.047 119.6 144.877 119.6C145.557 119.6 146.097 119.79 146.497 120.17C146.897 120.54 147.097 121.05 147.097 121.7L146.752 121.325H147.127L147.082 119.405V117.05H148.702V128H147.097V126.425H146.752L147.097 126.05C147.097 126.7 146.897 127.215 146.497 127.595C146.097 127.965 145.557 128.15 144.877 128.15ZM145.432 126.74C145.942 126.74 146.342 126.585 146.632 126.275C146.932 125.955 147.082 125.515 147.082 124.955V122.795C147.082 122.235 146.932 121.8 146.632 121.49C146.342 121.17 145.942 121.01 145.432 121.01C144.902 121.01 144.487 121.165 144.187 121.475C143.887 121.775 143.737 122.215 143.737 122.795V124.955C143.737 125.535 143.887 125.98 144.187 126.29C144.487 126.59 144.902 126.74 145.432 126.74Z" fill="#CC241D"/>
<path d="M26.9631 29.65V15.55H30.8931V17.02H28.5681V28.18H30.8931V29.65H26.9631ZM107.13 69.65V68.18H109.455V57.02H107.13V55.55H111.06V69.65H107.13ZM125.899 69.65V55.55H129.829V57.02H127.504V68.18H129.829V69.65H125.899ZM26.1831 129.65V128.18H28.5081V117.02H26.1831V115.55H30.1131V129.65H26.1831ZM44.9514 129.65V115.55H48.8814V117.02H46.5564V128.18H48.8814V129.65H44.9514ZM134.113 129.65V128.18H136.438V117.02H134.113V115.55H138.043V129.65H134.113ZM49.4484 149.65V135.55H53.3784V137.02H51.0534V148.18H53.3784V149.65H49.4484ZM111.627 149.65V148.18H113.952V137.02H111.627V135.55H115.557V149.65H111.627Z" fill="#D79921"/>
<path d="M71.3788 30.4L72.5788 25.735H74.7388L72.7888 30.4H71.3788ZM35.4022 50.4L36.6022 45.735H38.7622L36.8122 50.4H35.4022ZM98.3612 50.4L99.5612 45.735H101.721L99.7712 50.4H98.3612ZM134.338 50.4L135.538 45.735H137.698L135.748 50.4H134.338ZM53.3905 90.4L54.5905 85.735H56.7505L54.8005 90.4H53.3905ZM17.4139 110.4L18.6139 105.735H20.7739L18.8239 110.4H17.4139ZM80.3729 110.4L81.5729 105.735H83.7329L81.7829 110.4H80.3729ZM125.344 110.4L126.544 105.735H128.704L126.754 110.4H125.344ZM80.3729 130.4L81.5729 125.735H83.7329L81.7829 130.4H80.3729ZM107.355 130.4L108.555 125.735H110.715L108.765 130.4H107.355Z" fill="#B8BB26"/>
<path d="M75.5 19C75.5 17.3431 76.8432 16 78.5 16H145.5C147.157 16 148.5 17.3431 148.5 19V27C148.5 28.6569 147.157 30 145.5 30H78.5C76.8432 30 75.5 28.6569 75.5 27V19Z" fill="#B7A193"/>
<path d="M15 39C15 37.3431 16.3432 36 18 36H32C33.6569 36 35 37.3431 35 39V47C35 48.6569 33.6569 50 32 50H18C16.3432 50 15 48.6569 15 47V39Z" fill="#B7A193"/>
<path d="M40 39C40 37.3431 41.3432 36 43 36H95C96.6569 36 98 37.3431 98 39V47C98 48.6569 96.6569 50 95 50H43C41.3432 50 40 48.6569 40 47V39Z" fill="#B7A193"/>
<path d="M40 39C40 37.3431 41.3432 36 43 36H95C96.6569 36 98 37.3431 98 39V47C98 48.6569 96.6569 50 95 50H43C41.3432 50 40 48.6569 40 47V39Z" fill="#B7A193"/>
<path d="M103 39C103 37.3431 104.343 36 106 36H131C132.657 36 134 37.3431 134 39V47C134 48.6569 132.657 50 131 50H106C104.343 50 103 48.6569 103 47V39Z" fill="#B7A193"/>
<path d="M103 39C103 37.3431 104.343 36 106 36H131C132.657 36 134 37.3431 134 39V47C134 48.6569 132.657 50 131 50H106C104.343 50 103 48.6569 103 47V39Z" fill="#B7A193"/>
<path d="M139 39C139 37.3431 140.343 36 142 36H145C146.657 36 148 37.3431 148 39V47C148 48.6569 146.657 50 145 50H142C140.343 50 139 48.6569 139 47V39Z" fill="#B7A193"/>
<path d="M139 39C139 37.3431 140.343 36 142 36H145C146.657 36 148 37.3431 148 39V47C148 48.6569 146.657 50 145 50H142C140.343 50 139 48.6569 139 47V39Z" fill="#B7A193"/>
<path d="M15 58.5C15 56.8431 16.3431 55.5 18 55.5H103C104.657 55.5 106 56.8431 106 58.5V66.5C106 68.1569 104.657 69.5 103 69.5H18C16.3431 69.5 15 68.1569 15 66.5V58.5Z" fill="#B7A193"/>
<path d="M15 58.5C15 56.8431 16.3431 55.5 18 55.5H103C104.657 55.5 106 56.8431 106 58.5V66.5C106 68.1569 104.657 69.5 103 69.5H18C16.3431 69.5 15 68.1569 15 66.5V58.5Z" fill="#B7A193"/>
<path d="M132 58.5C132 56.8431 133.343 55.5 135 55.5H145C146.657 55.5 148 56.8431 148 58.5V66.5C148 68.1569 146.657 69.5 145 69.5H135C133.343 69.5 132 68.1569 132 66.5V58.5Z" fill="#B7A193"/>
<path d="M132 58.5C132 56.8431 133.343 55.5 135 55.5H145C146.657 55.5 148 56.8431 148 58.5V66.5C148 68.1569 146.657 69.5 145 69.5H135C133.343 69.5 132 68.1569 132 66.5V58.5Z" fill="#B7A193"/>
<path d="M15 78.5C15 76.8431 16.3432 75.5 18 75.5H50C51.6569 75.5 53 76.8431 53 78.5V86.5C53 88.1569 51.6569 89.5 50 89.5H18C16.3432 89.5 15 88.1569 15 86.5V78.5Z" fill="#B7A193"/>
<path d="M15 78.5C15 76.8431 16.3432 75.5 18 75.5H50C51.6569 75.5 53 76.8431 53 78.5V86.5C53 88.1569 51.6569 89.5 50 89.5H18C16.3432 89.5 15 88.1569 15 86.5V78.5Z" fill="#B7A193"/>
<path d="M59 78.5C59 76.8431 60.3432 75.5 62 75.5H145C146.657 75.5 148 76.8431 148 78.5V86.5C148 88.1569 146.657 89.5 145 89.5H62C60.3432 89.5 59 88.1569 59 86.5V78.5Z" fill="#B7A193"/>
<path d="M59 78.5C59 76.8431 60.3432 75.5 62 75.5H145C146.657 75.5 148 76.8431 148 78.5V86.5C148 88.1569 146.657 89.5 145 89.5H62C60.3432 89.5 59 88.1569 59 86.5V78.5Z" fill="#B7A193"/>
<path d="M23 98.5C23 96.8431 24.3431 95.5 26 95.5H77C78.6569 95.5 80 96.8431 80 98.5V106.5C80 108.157 78.6569 109.5 77 109.5H26C24.3431 109.5 23 108.157 23 106.5V98.5Z" fill="#B7A193"/>
<path d="M23 98.5C23 96.8431 24.3431 95.5 26 95.5H77C78.6569 95.5 80 96.8431 80 98.5V106.5C80 108.157 78.6569 109.5 77 109.5H26C24.3431 109.5 23 108.157 23 106.5V98.5Z" fill="#B7A193"/>
<path d="M86 98.5C86 96.8431 87.3432 95.5 89 95.5H122C123.657 95.5 125 96.8431 125 98.5V106.5C125 108.157 123.657 109.5 122 109.5H89C87.3432 109.5 86 108.157 86 106.5V98.5Z" fill="#B7A193"/>
<path d="M86 98.5C86 96.8431 87.3432 95.5 89 95.5H122C123.657 95.5 125 96.8431 125 98.5V106.5C125 108.157 123.657 109.5 122 109.5H89C87.3432 109.5 86 108.157 86 106.5V98.5Z" fill="#B7A193"/>
<path d="M130 98.5C130 96.8431 131.343 95.5 133 95.5H145C146.657 95.5 148 96.8431 148 98.5V106.5C148 108.157 146.657 109.5 145 109.5H133C131.343 109.5 130 108.157 130 106.5V98.5Z" fill="#B7A193"/>
<path d="M130 98.5C130 96.8431 131.343 95.5 133 95.5H145C146.657 95.5 148 96.8431 148 98.5V106.5C148 108.157 146.657 109.5 145 109.5H133C131.343 109.5 130 108.157 130 106.5V98.5Z" fill="#B7A193"/>
<path d="M15 118.5C15 116.843 16.3432 115.5 18 115.5H23C24.6569 115.5 26 116.843 26 118.5V126.5C26 128.157 24.6569 129.5 23 129.5H18C16.3432 129.5 15 128.157 15 126.5V118.5Z" fill="#B7A193"/>
<path d="M15 118.5C15 116.843 16.3432 115.5 18 115.5H23C24.6569 115.5 26 116.843 26 118.5V126.5C26 128.157 24.6569 129.5 23 129.5H18C16.3432 129.5 15 128.157 15 126.5V118.5Z" fill="#B7A193"/>
<path d="M48.8293 118.5C48.8293 116.843 50.1724 115.5 51.8293 115.5H76.8293C78.4862 115.5 79.8293 116.843 79.8293 118.5V126.5C79.8293 128.157 78.4862 129.5 76.8293 129.5H51.8293C50.1724 129.5 48.8293 128.157 48.8293 126.5V118.5Z" fill="#B7A193"/>
<path d="M48.8293 118.5C48.8293 116.843 50.1724 115.5 51.8293 115.5H76.8293C78.4862 115.5 79.8293 116.843 79.8293 118.5V126.5C79.8293 128.157 78.4862 129.5 76.8293 129.5H51.8293C50.1724 129.5 48.8293 128.157 48.8293 126.5V118.5Z" fill="#B7A193"/>
<path d="M84.8293 118.5C84.8293 116.843 86.1724 115.5 87.8293 115.5H103.829C105.486 115.5 106.829 116.843 106.829 118.5V126.5C106.829 128.157 105.486 129.5 103.829 129.5H87.8293C86.1724 129.5 84.8293 128.157 84.8293 126.5V118.5Z" fill="#B7A193"/>
<path d="M84.8293 118.5C84.8293 116.843 86.1724 115.5 87.8293 115.5H103.829C105.486 115.5 106.829 116.843 106.829 118.5V126.5C106.829 128.157 105.486 129.5 103.829 129.5H87.8293C86.1724 129.5 84.8293 128.157 84.8293 126.5V118.5Z" fill="#B7A193"/>
<path d="M112 118.5C112 116.843 113.343 115.5 115 115.5H131C132.657 115.5 134 116.843 134 118.5V126.5C134 128.157 132.657 129.5 131 129.5H115C113.343 129.5 112 128.157 112 126.5V118.5Z" fill="#B7A193"/>
<path d="M112 118.5C112 116.843 113.343 115.5 115 115.5H131C132.657 115.5 134 116.843 134 118.5V126.5C134 128.157 132.657 129.5 131 129.5H115C113.343 129.5 112 128.157 112 126.5V118.5Z" fill="#B7A193"/>
<path d="M55.8293 138.5C55.8293 136.843 57.1724 135.5 58.8293 135.5H106.829C108.486 135.5 109.829 136.843 109.829 138.5V146.5C109.829 148.157 108.486 149.5 106.829 149.5H58.8293C57.1724 149.5 55.8293 148.157 55.8293 146.5V138.5Z" fill="#B7A193"/>
<path d="M55.8293 138.5C55.8293 136.843 57.1724 135.5 58.8293 135.5H106.829C108.486 135.5 109.829 136.843 109.829 138.5V146.5C109.829 148.157 108.486 149.5 106.829 149.5H58.8293C57.1724 149.5 55.8293 148.157 55.8293 146.5V138.5Z" fill="#B7A193"/>
<path d="M32 19C32 17.3431 33.3431 16 35 16H68C69.6569 16 71 17.3431 71 19V27C71 28.6569 69.6569 30 68 30H35C33.3431 30 32 28.6569 32 27V19Z" fill="#B7A193"/>
<mask id="path-4-outside-1_354_226" maskUnits="userSpaceOnUse" x="16" y="51" width="137" height="61" fill="black">
<rect fill="white" x="16" y="51" width="137" height="61"/>
<path d="M21.4142 108L29.7662 55.44H40.5662L33.7982 97.92H55.0382L53.4542 108H21.4142ZM63.3621 108L66.8181 55.44H75.4581L72.5061 90.576C72.4581 91.248 72.3621 92.208 72.2181 93.456C72.1221 94.656 71.9781 95.928 71.7861 97.272C71.6421 98.568 71.4981 99.744 71.3541 100.8C71.6421 99.744 71.9301 98.568 72.2181 97.272C72.5541 95.928 72.8661 94.656 73.1541 93.456C73.4901 92.208 73.7541 91.248 73.9461 90.576L83.4501 55.44H91.8741L90.0021 90.576C89.9541 91.248 89.9061 92.208 89.8581 93.456C89.8101 94.656 89.7621 95.928 89.7141 97.272C89.6661 98.568 89.6181 99.744 89.5701 100.8C89.7621 99.744 89.9781 98.568 90.2181 97.272C90.4581 95.928 90.6981 94.656 90.9381 93.456C91.2261 92.208 91.4421 91.248 91.5861 90.576L99.6501 55.44H108.578L94.9701 108H83.7381L85.6821 73.08C85.7301 72.264 85.8021 71.208 85.8981 69.912C85.9941 68.568 86.0901 67.176 86.1861 65.736C86.3301 64.296 86.4501 63.024 86.5461 61.92C86.3061 63.024 86.0181 64.296 85.6821 65.736C85.3941 67.176 85.1061 68.568 84.8181 69.912C84.5301 71.208 84.2661 72.264 84.0261 73.08L74.6661 108H63.3621ZM105.958 108L114.31 55.44H148.15L146.494 65.52H123.31L121.51 77.184H142.822L141.238 87.264H120.07L116.758 108H105.958Z"/>
</mask>
<path d="M21.4142 108L29.7662 55.44H40.5662L33.7982 97.92H55.0382L53.4542 108H21.4142ZM63.3621 108L66.8181 55.44H75.4581L72.5061 90.576C72.4581 91.248 72.3621 92.208 72.2181 93.456C72.1221 94.656 71.9781 95.928 71.7861 97.272C71.6421 98.568 71.4981 99.744 71.3541 100.8C71.6421 99.744 71.9301 98.568 72.2181 97.272C72.5541 95.928 72.8661 94.656 73.1541 93.456C73.4901 92.208 73.7541 91.248 73.9461 90.576L83.4501 55.44H91.8741L90.0021 90.576C89.9541 91.248 89.9061 92.208 89.8581 93.456C89.8101 94.656 89.7621 95.928 89.7141 97.272C89.6661 98.568 89.6181 99.744 89.5701 100.8C89.7621 99.744 89.9781 98.568 90.2181 97.272C90.4581 95.928 90.6981 94.656 90.9381 93.456C91.2261 92.208 91.4421 91.248 91.5861 90.576L99.6501 55.44H108.578L94.9701 108H83.7381L85.6821 73.08C85.7301 72.264 85.8021 71.208 85.8981 69.912C85.9941 68.568 86.0901 67.176 86.1861 65.736C86.3301 64.296 86.4501 63.024 86.5461 61.92C86.3061 63.024 86.0181 64.296 85.6821 65.736C85.3941 67.176 85.1061 68.568 84.8181 69.912C84.5301 71.208 84.2661 72.264 84.0261 73.08L74.6661 108H63.3621ZM105.958 108L114.31 55.44H148.15L146.494 65.52H123.31L121.51 77.184H142.822L141.238 87.264H120.07L116.758 108H105.958Z" fill="#FFF4E6"/>
<path d="M21.4142 108L17.4638 107.372L16.7284 112H21.4142V108ZM29.7662 55.44V51.44H26.3516L25.8158 54.8123L29.7662 55.44ZM40.5662 55.44L44.5164 56.0693L45.2539 51.44H40.5662V55.44ZM33.7982 97.92L29.848 97.2906L29.1105 101.92H33.7982V97.92ZM55.0382 97.92L58.9897 98.541L59.7158 93.92H55.0382V97.92ZM53.4542 108V112H56.8747L57.4057 108.621L53.4542 108ZM25.3646 108.628L33.7166 56.0677L25.8158 54.8123L17.4638 107.372L25.3646 108.628ZM29.7662 59.44H40.5662V51.44H29.7662V59.44ZM36.616 54.8106L29.848 97.2906L37.7484 98.5494L44.5164 56.0693L36.616 54.8106ZM33.7982 101.92H55.0382V93.92H33.7982V101.92ZM51.0867 97.299L49.5027 107.379L57.4057 108.621L58.9897 98.541L51.0867 97.299ZM53.4542 104H21.4142V112H53.4542V104ZM63.3621 108L59.3707 107.738L59.0904 112H63.3621V108ZM66.8181 55.44V51.44H63.0724L62.8267 55.1776L66.8181 55.44ZM75.4581 55.44L79.444 55.7749L79.8082 51.44H75.4581V55.44ZM72.5061 90.576L68.5201 90.2411L68.518 90.266L68.5162 90.291L72.5061 90.576ZM72.2181 93.456L68.2444 92.9975L68.2364 93.0671L68.2308 93.137L72.2181 93.456ZM71.7861 97.272L67.8263 96.7063L67.8174 96.7682L67.8105 96.8303L71.7861 97.272ZM71.3541 100.8L67.3907 100.26L75.2131 101.852L71.3541 100.8ZM72.2181 97.272L68.3375 96.3019L68.3247 96.3529L68.3133 96.4043L72.2181 97.272ZM73.1541 93.456L69.2916 92.4161L69.2773 92.4691L69.2645 92.5225L73.1541 93.456ZM73.9461 90.576L77.7922 91.6749L77.7999 91.6477L77.8073 91.6204L73.9461 90.576ZM83.4501 55.44V51.44H80.3883L79.5888 54.3956L83.4501 55.44ZM91.8741 55.44L95.8684 55.6528L96.0929 51.44H91.8741V55.44ZM90.0021 90.576L93.9919 90.861L93.9945 90.8249L93.9964 90.7888L90.0021 90.576ZM89.8581 93.456L93.8549 93.6159L93.8551 93.6097L89.8581 93.456ZM89.7141 97.272L93.7113 97.42L93.7115 97.4148L89.7141 97.272ZM89.5701 100.8L85.5742 100.618L93.5055 101.516L89.5701 100.8ZM90.2181 97.272L94.1512 98.0004L94.1535 97.9878L94.1558 97.9752L90.2181 97.272ZM90.9381 93.456L87.0405 92.5566L87.0273 92.6139L87.0157 92.6715L90.9381 93.456ZM91.5861 90.576L87.6874 89.6812L87.6809 89.7095L87.6749 89.7379L91.5861 90.576ZM99.6501 55.44V51.44H96.4641L95.7514 54.5452L99.6501 55.44ZM108.578 55.44L112.45 56.4426L113.746 51.44H108.578V55.44ZM94.9701 108V112H98.0663L98.8424 109.003L94.9701 108ZM83.7381 108L79.7442 107.778L79.5092 112H83.7381V108ZM85.6821 73.08L81.6889 72.8451L81.6882 72.8577L85.6821 73.08ZM85.8981 69.912L89.8871 70.2075L89.8879 70.197L85.8981 69.912ZM86.1861 65.736L82.2059 65.338L82.1993 65.4039L82.1949 65.4699L86.1861 65.736ZM86.5461 61.92L90.531 62.2665L82.6374 61.0703L86.5461 61.92ZM85.6821 65.736L81.7867 64.8271L81.7722 64.8891L81.7597 64.9515L85.6821 65.736ZM84.8181 69.912L88.7228 70.7797L88.7261 70.7649L88.7293 70.7501L84.8181 69.912ZM84.0261 73.08L80.1886 71.9513L80.175 71.9977L80.1624 72.0444L84.0261 73.08ZM74.6661 108V112H77.7351L78.5297 109.036L74.6661 108ZM67.3534 108.262L70.8094 55.7024L62.8267 55.1776L59.3707 107.738L67.3534 108.262ZM66.8181 59.44H75.4581V51.44H66.8181V59.44ZM71.4721 55.1051L68.5201 90.2411L76.492 90.9109L79.444 55.7749L71.4721 55.1051ZM68.5162 90.291C68.4745 90.8754 68.3864 91.7671 68.2444 92.9975L76.1917 93.9145C76.3377 92.6489 76.4416 91.6206 76.4959 90.861L68.5162 90.291ZM68.2308 93.137C68.1422 94.2449 68.008 95.4341 67.8263 96.7063L75.7459 97.8377C75.9481 96.4219 76.102 95.0671 76.2053 93.775L68.2308 93.137ZM67.8105 96.8303C67.6694 98.1003 67.5294 99.2427 67.3907 100.26L75.3174 101.34C75.4667 100.245 75.6147 99.0357 75.7616 97.7137L67.8105 96.8303ZM75.2131 101.852C75.5209 100.724 75.8238 99.4852 76.1228 98.1397L68.3133 96.4043C68.0363 97.6508 67.7633 98.764 67.495 99.7475L75.2131 101.852ZM76.0986 98.2421C76.4373 96.8874 76.7523 95.6031 77.0436 94.3895L69.2645 92.5225C68.9798 93.7089 68.6708 94.9686 68.3375 96.3019L76.0986 98.2421ZM77.0165 94.4959C77.3509 93.2541 77.6086 92.3173 77.7922 91.6749L70.1 89.4771C69.8995 90.1787 69.6293 91.1619 69.2916 92.4161L77.0165 94.4959ZM77.8073 91.6204L87.3113 56.4844L79.5888 54.3956L70.0848 89.5316L77.8073 91.6204ZM83.4501 59.44H91.8741V51.44H83.4501V59.44ZM87.8797 55.2272L86.0077 90.3632L93.9964 90.7888L95.8684 55.6528L87.8797 55.2272ZM86.0122 90.291C85.9595 91.029 85.9095 92.0406 85.861 93.3023L93.8551 93.6097C93.9026 92.3754 93.9486 91.467 93.9919 90.861L86.0122 90.291ZM85.8613 93.2961C85.813 94.5025 85.7648 95.7802 85.7166 97.1292L93.7115 97.4148C93.7593 96.0758 93.8071 94.8095 93.8549 93.6159L85.8613 93.2961ZM85.7168 97.124C85.6691 98.4112 85.6216 99.5757 85.5742 100.618L93.5659 100.982C93.6145 99.9123 93.663 98.7248 93.7113 97.42L85.7168 97.124ZM93.5055 101.516C93.6966 100.465 93.9118 99.293 94.1512 98.0004L86.2849 96.5436C86.0443 97.843 85.8275 99.0234 85.6346 100.084L93.5055 101.516ZM94.1558 97.9752C94.3915 96.6553 94.6264 95.4105 94.8604 94.2405L87.0157 92.6715C86.7698 93.9015 86.5247 95.2007 86.2804 96.5688L94.1558 97.9752ZM94.8356 94.3554C95.1251 93.1012 95.3466 92.1171 95.4973 91.4141L87.6749 89.7379C87.5375 90.3789 87.3271 91.3148 87.0405 92.5566L94.8356 94.3554ZM95.4847 91.4708L103.549 56.3348L95.7514 54.5452L87.6874 89.6812L95.4847 91.4708ZM99.6501 59.44H108.578V51.44H99.6501V59.44ZM104.706 54.4374L91.0977 106.997L98.8424 109.003L112.45 56.4426L104.706 54.4374ZM94.9701 104H83.7381V112H94.9701V104ZM87.7319 108.222L89.6759 73.3023L81.6882 72.8577L79.7442 107.778L87.7319 108.222ZM89.6752 73.3149C89.7215 72.5273 89.7919 71.4935 89.8871 70.2075L81.909 69.6165C81.8123 70.9225 81.7386 72.0007 81.689 72.8451L89.6752 73.3149ZM89.8879 70.197C89.9844 68.8463 90.0808 67.4479 90.1772 66.0021L82.1949 65.4699C82.0993 66.9041 82.0037 68.2897 81.9082 69.627L89.8879 70.197ZM90.1662 66.134C90.3114 64.6817 90.4332 63.3919 90.531 62.2665L82.5611 61.5735C82.467 62.656 82.3487 63.9103 82.2059 65.338L90.1662 66.134ZM82.6374 61.0703C82.4027 62.1496 82.1194 63.4012 81.7867 64.8271L89.5774 66.6449C89.9167 65.1908 90.2094 63.8984 90.4548 62.7697L82.6374 61.0703ZM81.7597 64.9515C81.4751 66.3748 81.1908 67.7489 80.9069 69.0739L88.7293 70.7501C89.0213 69.3871 89.313 67.9772 89.6044 66.5205L81.7597 64.9515ZM80.9133 69.0443C80.6353 70.2952 80.3934 71.2552 80.1886 71.9513L87.8635 74.2087C88.1388 73.2728 88.4248 72.1208 88.7228 70.7797L80.9133 69.0443ZM80.1624 72.0444L70.8024 106.964L78.5297 109.036L87.8897 74.1156L80.1624 72.0444ZM74.6661 104H63.3621V112H74.6661V104ZM105.958 108L102.008 107.372L101.272 112H105.958V108ZM114.31 55.44V51.44H110.895L110.36 54.8123L114.31 55.44ZM148.15 55.44L152.097 56.0884L152.861 51.44H148.15V55.44ZM146.494 65.52V69.52H149.89L150.441 66.1684L146.494 65.52ZM123.31 65.52V61.52H119.88L119.357 64.9099L123.31 65.52ZM121.51 77.184L117.557 76.5739L116.845 81.184H121.51V77.184ZM142.822 77.184L146.773 77.8049L147.5 73.184H142.822V77.184ZM141.238 87.264V91.264H144.658L145.189 87.885L141.238 87.264ZM120.07 87.264V83.264H116.658L116.12 86.6331L120.07 87.264ZM116.758 108V112H120.17L120.708 108.631L116.758 108ZM109.908 108.628L118.26 56.0677L110.36 54.8123L102.008 107.372L109.908 108.628ZM114.31 59.44H148.15V51.44H114.31V59.44ZM144.203 54.7915L142.547 64.8715L150.441 66.1684L152.097 56.0884L144.203 54.7915ZM146.494 61.52H123.31V69.52H146.494V61.52ZM119.357 64.9099L117.557 76.5739L125.463 77.7941L127.263 66.1301L119.357 64.9099ZM121.51 81.184H142.822V73.184H121.51V81.184ZM138.87 76.563L137.286 86.643L145.189 87.885L146.773 77.8049L138.87 76.563ZM141.238 83.264H120.07V91.264H141.238V83.264ZM116.12 86.6331L112.808 107.369L120.708 108.631L124.02 87.8949L116.12 86.6331ZM116.758 104H105.958V112H116.758V104Z" fill="#78726F" fill-opacity="0.85" mask="url(#path-4-outside-1_354_226)"/>
</g>
<defs>
<clipPath id="clip0_354_226">
<rect width="165" height="165" fill="white"/>
</clipPath>
</defs>
</svg>
