<svg width="57" height="64" viewBox="0 0 57 64" fill="none" xmlns="http://www.w3.org/2000/svg">
<path d="M19 5C19 3.34315 20.3432 2 22 2H30C31.6569 2 33 3.34315 33 5V11C33 12.6569 31.6569 14 30 14H22C20.3432 14 19 12.6569 19 11V5Z" fill="#B7A193"/>
<path d="M19 5C19 3.34315 20.3432 2 22 2H30C31.6569 2 33 3.34315 33 5V11C33 12.6569 31.6569 14 30 14H22C20.3432 14 19 12.6569 19 11V5Z" fill="#B7A193"/>
<path d="M2 5C2 3.34315 3.34315 2 5 2H12C13.6569 2 15 3.34315 15 5V11C15 12.6569 13.6569 14 12 14H5C3.34315 14 2 12.6569 2 11V5Z" fill="#B7A193"/>
<path d="M2 5C2 3.34315 3.34315 2 5 2H12C13.6569 2 15 3.34315 15 5V11C15 12.6569 13.6569 14 12 14H5C3.34315 14 2 12.6569 2 11V5Z" fill="#FFF4E6"/>
<path d="M19 21C19 19.3431 20.3432 18 22 18H35C36.6569 18 38 19.3431 38 21V27C38 28.6569 36.6569 30 35 30H22C20.3432 30 19 28.6569 19 27V21Z" fill="#B7A193"/>
<path d="M19 21C19 19.3431 20.3432 18 22 18H35C36.6569 18 38 19.3431 38 21V27C38 28.6569 36.6569 30 35 30H22C20.3432 30 19 28.6569 19 27V21Z" fill="#9A8470"/>
<path d="M2 21C2 19.3431 3.34315 18 5 18H12C13.6569 18 15 19.3431 15 21V27C15 28.6569 13.6569 30 12 30H5C3.34315 30 2 28.6569 2 27V21Z" fill="#B7A193"/>
<path d="M2 21C2 19.3431 3.34315 18 5 18H12C13.6569 18 15 19.3431 15 21V27C15 28.6569 13.6569 30 12 30H5C3.34315 30 2 28.6569 2 27V21Z" fill="#FFF4E6"/>
<path d="M2 53C2 51.3431 3.34315 50 5 50H52C53.6569 50 55 51.3431 55 53V59C55 60.6569 53.6569 62 52 62H5C3.34315 62 2 60.6569 2 59V53Z" fill="#B7A193"/>
<path d="M2 53C2 51.3431 3.34315 50 5 50H52C53.6569 50 55 51.3431 55 53V59C55 60.6569 53.6569 62 52 62H5C3.34315 62 2 60.6569 2 59V53Z" fill="#FFF4E6"/>
<path d="M19 37C19 35.3431 20.3432 34 22 34H38C39.6569 34 41 35.3431 41 37V43C41 44.6569 39.6569 46 38 46H22C20.3432 46 19 44.6569 19 43V37Z" fill="#B7A193"/>
<path d="M19 37C19 35.3431 20.3432 34 22 34H38C39.6569 34 41 35.3431 41 37V43C41 44.6569 39.6569 46 38 46H22C20.3432 46 19 44.6569 19 43V37Z" fill="#B7A193"/>
<path d="M2 37C2 35.3431 3.34315 34 5 34H12C13.6569 34 15 35.3431 15 37V43C15 44.6569 13.6569 46 12 46H5C3.34315 46 2 44.6569 2 43V37Z" fill="#B7A193"/>
<path d="M2 37C2 35.3431 3.34315 34 5 34H12C13.6569 34 15 35.3431 15 37V43C15 44.6569 13.6569 46 12 46H5C3.34315 46 2 44.6569 2 43V37Z" fill="#FFF4E6"/>
<path d="M45 37C45 35.3431 46.3431 34 48 34H52C53.6569 34 55 35.3431 55 37V43C55 44.6569 53.6569 46 52 46H48C46.3431 46 45 44.6569 45 43V37Z" fill="#B7A193"/>
<path d="M45 37C45 35.3431 46.3431 34 48 34H52C53.6569 34 55 35.3431 55 37V43C55 44.6569 53.6569 46 52 46H48C46.3431 46 45 44.6569 45 43V37Z" fill="#806F64"/>
<path d="M37 5C37 3.34315 38.3432 2 40 2H52C53.6569 2 55 3.34315 55 5V11C55 12.6569 53.6569 14 52 14H40C38.3432 14 37 12.6569 37 11V5Z" fill="#B7A193"/>
<path d="M37 5C37 3.34315 38.3432 2 40 2H52C53.6569 2 55 3.34315 55 5V11C55 12.6569 53.6569 14 52 14H40C38.3432 14 37 12.6569 37 11V5Z" fill="#6A5D54"/>
<path d="M42 21C42 19.3431 43.3431 18 45 18H52C53.6569 18 55 19.3431 55 21V27C55 28.6569 53.6569 30 52 30H45C43.3431 30 42 28.6569 42 27V21Z" fill="#B7A193"/>
<path d="M42 21C42 19.3431 43.3431 18 45 18H52C53.6569 18 55 19.3431 55 21V27C55 28.6569 53.6569 30 52 30H45C43.3431 30 42 28.6569 42 27V21Z" fill="#B7A193"/>
<path d="M22 14H30C31.6569 14 33 12.6569 33 11V5C33 3.34315 31.6569 2 30 2H22C20.3432 2 19 3.34315 19 5V11C19 12.6569 20.3432 14 22 14ZM5 14H12C13.6569 14 15 12.6569 15 11V5C15 3.34315 13.6569 2 12 2H5C3.34315 2 2 3.34315 2 5V11C2 12.6569 3.34315 14 5 14ZM22 30H35C36.6569 30 38 28.6569 38 27V21C38 19.3431 36.6569 18 35 18H22C20.3432 18 19 19.3431 19 21V27C19 28.6569 20.3432 30 22 30ZM5 30H12C13.6569 30 15 28.6569 15 27V21C15 19.3431 13.6569 18 12 18H5C3.34315 18 2 19.3431 2 21V27C2 28.6569 3.34315 30 5 30ZM5 62H52C53.6569 62 55 60.6569 55 59V53C55 51.3431 53.6569 50 52 50H5C3.34315 50 2 51.3431 2 53V59C2 60.6569 3.34315 62 5 62ZM22 46H38C39.6569 46 41 44.6569 41 43V37C41 35.3431 39.6569 34 38 34H22C20.3432 34 19 35.3431 19 37V43C19 44.6569 20.3432 46 22 46ZM5 46H12C13.6569 46 15 44.6569 15 43V37C15 35.3431 13.6569 34 12 34H5C3.34315 34 2 35.3431 2 37V43C2 44.6569 3.34315 46 5 46ZM48 46H52C53.6569 46 55 44.6569 55 43V37C55 35.3431 53.6569 34 52 34H48C46.3431 34 45 35.3431 45 37V43C45 44.6569 46.3431 46 48 46ZM40 14H52C53.6569 14 55 12.6569 55 11V5C55 3.34315 53.6569 2 52 2H40C38.3432 2 37 3.34315 37 5V11C37 12.6569 38.3432 14 40 14ZM45 30H52C53.6569 30 55 28.6569 55 27V21C55 19.3431 53.6569 18 52 18H45C43.3431 18 42 19.3431 42 21V27C42 28.6569 43.3431 30 45 30Z" stroke="#524D4B" stroke-width="3"/>
</svg>
